<?xml version="1.0" standalone="no"?>
<!DOCTYPE svg PUBLIC "-//W3C//DTD SVG 20010904//EN"
 "http://www.w3.org/TR/2001/REC-SVG-20010904/DTD/svg10.dtd">
<svg version="1.0" xmlns="http://www.w3.org/2000/svg"
 width="309.000000pt" height="309.000000pt" viewBox="0 0 309.000000 309.000000"
 preserveAspectRatio="xMidYMid meet">
<metadata>
Created by potrace 1.11, written by Peter Selinger 2001-2013
</metadata>
<g transform="translate(0.000000,309.000000) scale(0.100000,-0.100000)"
fill="#000000" stroke="none">
<path d="M1335 3080 c-22 -4 -58 -10 -80 -14 -75 -10 -240 -68 -337 -117 -153
-79 -330 -223 -417 -339 -14 -19 -28 -37 -31 -40 -3 -3 -22 -30 -42 -61 -68
-104 -128 -237 -159 -349 -7 -25 -14 -49 -15 -55 -37 -125 -39 -418 -5 -565
41 -178 121 -353 223 -492 59 -78 242 -268 259 -268 15 0 97 -58 147 -104 23
-21 45 -36 49 -33 11 12 45 -14 41 -31 -4 -14 2 -17 31 -17 20 1 41 4 47 8 12
7 32 -10 32 -27 1 -4 14 -16 30 -26 28 -17 31 -17 56 -1 29 19 74 17 82 -4 3
-6 6 -23 8 -36 13 -102 36 -129 111 -129 45 0 55 3 60 20 3 10 1 29 -6 41 -10
19 -9 21 5 16 8 -3 18 -2 21 3 4 7 13 7 24 0 10 -5 21 -7 24 -4 3 3 14 1 24
-4 10 -6 32 -12 48 -15 36 -6 147 -42 173 -56 10 -6 30 -12 43 -14 58 -11 109
-29 109 -38 0 -6 4 -8 9 -4 9 5 48 -5 186 -45 17 -5 41 -11 55 -14 14 -3 105
-26 204 -51 180 -45 301 -69 411 -80 33 -4 69 -9 80 -12 20 -6 20 -5 1 16 -54
60 -497 290 -801 416 -50 20 -93 40 -97 43 -4 4 21 18 55 31 215 84 445 276
583 488 84 131 159 315 179 444 3 19 9 59 14 89 23 136 1 395 -45 534 -51 155
-129 304 -219 416 -204 254 -464 409 -800 475 -48 10 -326 13 -370 5z"/>
</g>
</svg>
